<svg width="40" height="40" viewBox="0 0 40 40" fill="none" xmlns="http://www.w3.org/2000/svg">
<path d="M21.3587 3C26.435 3 31.233 5.21009 34.538 9.06352C36.1936 11.0034 35.9732 13.9143 34.0343 15.578C32.0953 17.2356 29.1784 17.0162 27.5228 15.0763C27.4995 15.0509 27.471 15.0255 27.4538 15.0001L27.4578 15.0072L27.3126 14.8477C25.7759 13.1881 23.6298 12.2426 21.3587 12.2426C20.9047 12.2426 20.4609 12.2801 20.0272 12.3512L6.3858 11.5854L6.4437 11.4859C7.41975 9.85066 8.6548 8.39217 10.095 7.15915L10.1062 7.15407C13.1329 4.56413 17.0665 3 21.3587 3Z" fill="url(#paint0_linear_190_1220)"></path>
<path d="M8.0068 9.27783L13.6295 17.8815C13.3797 18.6616 13.2446 19.4934 13.2446 20.3557C13.2446 23.5693 15.1236 26.3522 17.8405 27.6654L17.9837 27.7325L18.0081 27.7386L18.2173 27.831C19.1832 28.2403 20.2405 28.4648 21.3537 28.4648C23.7923 28.4648 26.0613 27.3953 27.6112 25.5214L27.7503 25.3487C29.3185 23.3428 32.2243 22.9903 34.2333 24.5606C36.2362 26.1267 36.5886 29.0325 35.0205 31.0385C31.7043 35.2748 26.7255 37.7002 21.3547 37.7002C11.7851 37.7012 4 29.9192 4 20.3506C4 17.3676 4.7587 14.5634 6.08922 12.1075L6.2629 11.7947C6.77175 10.9029 7.35474 10.0619 8.0068 9.27783Z" fill="url(#paint1_linear_190_1220)"></path>
<path opacity="0.8" d="M8.0068 9.27783L13.6295 17.8815C13.3797 18.6616 13.2446 19.4934 13.2446 20.3557C13.2446 23.5693 15.1236 26.3522 17.8405 27.6654L17.9837 27.7325L18.0081 27.7386L18.2173 27.831C19.1832 28.2403 20.2405 28.4648 21.3537 28.4648C23.7923 28.4648 26.0613 27.3953 27.6112 25.5214L27.7503 25.3487C29.3185 23.3428 32.2243 22.9903 34.2333 24.5606C36.2362 26.1267 36.5886 29.0325 35.0205 31.0385C31.7043 35.2748 26.7255 37.7002 21.3547 37.7002C11.7851 37.7012 4 29.9192 4 20.3506C4 17.3676 4.7587 14.5634 6.08922 12.1075L6.2629 11.7947C6.77175 10.9029 7.35474 10.0619 8.0068 9.27783Z" fill="url(#paint2_radial_190_1220)"></path>
<path d="M8.0068 9.27783L13.6295 17.8815C13.3797 18.6616 13.2446 19.4934 13.2446 20.3557C13.2446 23.5693 15.1236 26.3522 17.8405 27.6654L17.9837 27.7325L18.0081 27.7386L18.2173 27.831C19.1832 28.2403 20.2405 28.4648 21.3537 28.4648C23.7923 28.4648 26.0613 27.3953 27.6112 25.5214L27.7503 25.3487C29.3185 23.3428 32.2243 22.9903 34.2333 24.5606C36.2362 26.1267 36.5886 29.0325 35.0205 31.0385C31.7043 35.2748 26.7255 37.7002 21.3547 37.7002C11.7851 37.7012 4 29.9192 4 20.3506C4 17.3676 4.7587 14.5634 6.08922 12.1075L6.2629 11.7947C6.77175 10.9029 7.35474 10.0619 8.0068 9.27783Z" fill="url(#paint3_radial_190_1220)"></path>
<path d="M8.0068 9.27783L13.6295 17.8815C13.3797 18.6616 13.2446 19.4934 13.2446 20.3557C13.2446 23.5693 15.1236 26.3522 17.8405 27.6654L17.9837 27.7335L18.0081 27.7396L18.2173 27.832C19.1832 28.2413 20.2405 28.4658 21.3537 28.4658C23.7923 28.4658 26.0613 27.3963 27.6112 25.5224L27.7503 25.3497C29.3185 23.3438 32.2243 22.9913 34.2333 24.5616C36.2362 26.1277 36.5886 29.0335 35.0205 31.0395C31.7043 35.2758 26.7255 37.7012 21.3547 37.7012C11.7851 37.7012 4 29.9192 4 20.3506C4 17.3676 4.7587 14.5634 6.08922 12.1075L6.2629 11.7947C6.77175 10.9029 7.35474 10.0619 8.0068 9.27783Z" fill="url(#paint4_radial_190_1220)" fill-opacity="0.8"></path>
<path d="M8.0068 9.27783L13.6295 17.8815C13.3797 18.6616 13.2446 19.4934 13.2446 20.3557C13.2446 23.5693 15.1236 26.3522 17.8405 27.6654L17.9837 27.7325L18.0081 27.7386L18.2173 27.831C19.1832 28.2403 20.2405 28.4648 21.3537 28.4648C23.7923 28.4648 26.0613 27.3953 27.6112 25.5214L27.7503 25.3487C29.3185 23.3428 32.2243 22.9903 34.2333 24.5606C36.2362 26.1267 36.5886 29.0325 35.0205 31.0385C31.7043 35.2748 26.7255 37.7002 21.3547 37.7002C11.7851 37.7012 4 29.9192 4 20.3506C4 17.3676 4.7587 14.5634 6.08922 12.1075L6.2629 11.7947C6.77175 10.9029 7.35474 10.0619 8.0068 9.27783Z" fill="url(#paint5_radial_190_1220)"></path>
<path d="M11.6693 24.4438C13.6427 26.0607 15.8132 27.1556 17.938 27.7284C17.9613 27.7335 17.9786 27.7386 18.0071 27.7437C15.1998 26.4649 13.2436 23.6343 13.2436 20.3547C13.2436 15.8827 16.8786 12.2395 21.3587 12.2395C23.7029 12.2395 25.914 13.2471 27.4599 15.0072C26.4879 13.2735 25.1157 11.6098 23.3616 10.1777C19.0319 6.62796 13.7423 5.56355 10.095 7.16017C8.47503 8.54656 7.11404 10.2194 6.09025 12.1075C5.28584 15.9812 7.37506 20.9184 11.6703 24.4387V24.4438H11.6693Z" fill="url(#paint6_linear_190_1220)"></path>
<path d="M11.6703 24.4397C13.6427 26.0556 15.8132 27.1535 17.937 27.7233C17.9583 27.7284 17.9796 27.7345 18.001 27.7396C15.1947 26.4629 13.2375 23.6292 13.2375 20.3496C13.2375 15.8756 16.8766 12.2365 21.3506 12.2365C23.6907 12.2365 25.9099 13.244 27.4548 15.0041C26.4828 13.2714 25.1045 11.6078 23.3576 10.1747C19.0258 6.62491 13.7331 5.56252 10.091 7.15813C8.47097 8.5435 7.10896 10.2204 6.08618 12.1085C5.28482 15.9812 7.36897 20.9153 11.6703 24.4397Z" fill="url(#paint7_linear_190_1220)"></path>
<defs>
<linearGradient id="paint0_linear_190_1220" x1="22.4235" y1="18.3634" x2="19.1432" y2="2.5636" gradientUnits="userSpaceOnUse">
<stop stop-color="#476FE7"></stop>
<stop offset="0.297" stop-color="#3D5DE6"></stop>
<stop offset="0.5224" stop-color="#3550E7"></stop>
<stop offset="0.7264" stop-color="#2D47E8"></stop>
<stop offset="1" stop-color="#253FEB"></stop>
</linearGradient>
<linearGradient id="paint1_linear_190_1220" x1="35.5043" y1="30.3444" x2="3.2151" y2="20.3473" gradientUnits="userSpaceOnUse">
<stop stop-color="#73B1E2"></stop>
<stop offset="0.1627" stop-color="#7FADD8"></stop>
<stop offset="0.297" stop-color="#8AA4CD"></stop>
<stop offset="0.4123" stop-color="#909EC7"></stop>
<stop offset="0.5224" stop-color="#9594C0"></stop>
<stop offset="0.615" stop-color="#948DBE"></stop>
<stop offset="0.7264" stop-color="#9383BB"></stop>
<stop offset="0.8541" stop-color="#7D71C3"></stop>
<stop offset="1" stop-color="#5359D8"></stop>
</linearGradient>
<radialGradient id="paint2_radial_190_1220" cx="0" cy="0" r="1" gradientUnits="userSpaceOnUse" gradientTransform="translate(27.0307 35.2079) rotate(-161.896) scale(12.4081 15.7487)">
<stop stop-color="#BFDFEC"></stop>
<stop offset="1" stop-color="#BFDFEC" stop-opacity="0"></stop>
</radialGradient>
<radialGradient id="paint3_radial_190_1220" cx="0" cy="0" r="1" gradientUnits="userSpaceOnUse" gradientTransform="translate(6.95557 30.6614) rotate(-141.843) scale(18.1716 9.99523)">
<stop stop-color="#A784AE"></stop>
<stop offset="1" stop-color="#A784AE" stop-opacity="0"></stop>
</radialGradient>
<radialGradient id="paint4_radial_190_1220" cx="0" cy="0" r="1" gradientUnits="userSpaceOnUse" gradientTransform="translate(15.1215 36.5645) rotate(-150.092) scale(14.7832 11.3828)">
<stop stop-color="#E8D1AE" stop-opacity="0.8007"></stop>
<stop offset="1" stop-color="#E8D1AE" stop-opacity="0"></stop>
</radialGradient>
<radialGradient id="paint5_radial_190_1220" cx="0" cy="0" r="1" gradientTransform="matrix(-5.10307 11.6805 7.4889 3.27184 34.7349 22.0568)" gradientUnits="userSpaceOnUse">
<stop stop-color="#70AEF2" stop-opacity="0.83"></stop>
<stop offset="1" stop-color="#6896DF" stop-opacity="0"></stop>
</radialGradient>
<linearGradient id="paint6_linear_190_1220" x1="16.6767" y1="6.94201" x2="16.713" y2="27.4132" gradientUnits="userSpaceOnUse">
<stop stop-color="#1F2158"></stop>
<stop offset="0.0854" stop-color="#23276A"></stop>
<stop offset="0.22" stop-color="#2D3383"></stop>
<stop offset="0.31" stop-color="#363E92"></stop>
<stop offset="0.4551" stop-color="#494EA8"></stop>
<stop offset="0.5801" stop-color="#5C5EB1"></stop>
<stop offset="0.7179" stop-color="#6764AC"></stop>
<stop offset="0.8652" stop-color="#746DA7"></stop>
<stop offset="1" stop-color="#7B78A6"></stop>
</linearGradient>
<linearGradient id="paint7_linear_190_1220" x1="16.6862" y1="27.2909" x2="16.6862" y2="4.89883" gradientUnits="userSpaceOnUse">
<stop offset="0.41" stop-color="#201E47" stop-opacity="0.21"></stop>
<stop offset="1" stop-color="#1C1A44"></stop>
</linearGradient>
</defs>
</svg>